#!OML:ASF E:/inclinewalkrobotboard/Project1/Captureday1/Session1/subject1.ASF
:FULLY-SPECIFIED
:DEGREES
263
root 0 0 0 -6.459256865802061 -3.1709422716057976 -1.8048642227059082
lowerback 12.858650888200984 0.8797128686884297 1.5918589428321581
upperback 2.0178652562670596 1.4922342018610912 1.2530361453820758
thorax -5.0215803724213055 0.7802096703295475 0.11820964994724159
lowerneck -17.488066189278587 -3.4851152055848145 -2.014019328394728
upperneck 18.629540758352157 -4.363740978036471 0.5823719695967333
head 8.692545754830912 -2.1561726725948294 -0.012073453487013719
rclavicle 3.51045690905524E-15 9.162867622452967E-16
rhumerus -48.21050857308014 -18.116789029366434 -73.30699151431719
rradius 25.23920447107814
rwrist -2.3176689870491636
rhand -22.241786189334164 28.4844177999439
rfingers 7.125020000000061
rthumb 4.172052670477765 -1.8191562618654125
lclavicle -3.2770595785338725E-15 -6.714311287914369E-15
lhumerus -39.9807265085768 1.6462875819450682 84.84105930662113
lradius 26.89984524588634
lwrist 3.9711357518472
lhand -32.6055368661437 21.494076385197687
lfingers 7.125020000000037
lthumb -5.750003923012709 52.35184184127527
rfemur -23.909991668248978 18.616760287039753 35.075371841496306
rtibia 28.33748030422
rfoot -9.336158943174228 -12.44479449214254
rtoes -5.325887840343309
lfemur -3.982334775394939 -6.666645777314505 -21.121562195094004
ltibia 18.59311325787658
lfoot -10.359491387954177 -0.015473529861811386
ltoes -5.9295050725599605
264
root 0 0 0 -5.934474173507688 -2.7283306652078405 -1.1124208908627402
lowerback 12.636454996625133 0.6498974284151388 0.8378021002387552
upperback 1.897697148010609 1.0915825559174823 1.2126861686172552
thorax -5.039336331832963 0.5887466859378429 0.5664863838548362
lowerneck -17.48144338426304 -3.4003300534225893 -2.059303549504676
upperneck 18.52405656913783 -4.2089260190974285 0.4614399726525513
head 8.638032431792135 -2.0956226594955214 -0.016686689631949747
rclavicle 3.491126053469337E-15 9.298767101299629E-16
rhumerus -48.41361269667267 -18.17322997212734 -73.24017761599595
rradius 25.099511634621084
rwrist -2.2122239461297184
rhand -22.19293276128455 28.44780989872386
rfingers 7.125020000000061
rthumb 4.2164607999311166 -1.8516063401957936
lclavicle -3.0366079251829596E-15 -7.0013514917937165E-15
lhumerus -39.57357127153096 1.3040220231161115 84.76241929441348
lradius 27.107697306893282
lwrist 4.456265708747772
lhand -32.55661717871289 21.766778940604134
lfingers 7.125020000000038
lthumb -5.703469702837481 52.61427407415005
rfemur -24.710075755373197 20.324250663903115 36.25878196116467
rtibia 27.19675547439609
rfoot -9.535345629148283 -12.355867660384448
rtoes -5.283069889790145
lfemur -3.389539571024706 -6.6195706725729035 -21.33622493909496
ltibia 18.885253713775327
lfoot -10.285094837883968 -0.16495336271333016
ltoes -6.189501046995888
265
root 0 0 0 -5.18111906799777 -2.122411232987547 -0.16731858944109312
lowerback 12.343813419528114 0.3311575926734037 -0.20625295763634366
upperback 1.725017600713441 0.5353816637619565 1.1529640511219164
thorax -5.079137442130136 0.3231755648296274 1.1811780402499323
lowerneck -17.453768606422695 -3.2815957681864854 -2.1222918324464586
upperneck 18.371180081190914 -3.9903720743294113 0.2826824995603121
head 8.554615574557015 -2.01132903531728 -0.0251635496113094
rclavicle 3.4636318489704185E-15 9.460569025268353E-16
rhumerus -48.659348478613374 -18.240602744623814 -73.1394575477274
rradius 24.938468413961832
rwrist -2.080640721385123
rhand -22.13869876139707 28.40577337568358
rfingers 7.1250200000000605
rthumb 4.265660201928544 -1.8894350783541718
lclavicle -2.697466933071974E-15 -7.323464750509743E-15
lhumerus -39.080118744802945 0.8774888630622248 84.65496361632458
lradius 27.377749772209835
lwrist 5.084045123226698
lhand -32.48038776378097 22.12375568005839
lfingers 7.125020000000039
lthumb -5.631344923788934 52.95546039221455
rfemur -25.475850697830097 21.92814862308616 37.329099577945016
rtibia 26.29397582909698
rfoot -9.555817158216218 -12.362095381071299
rtoes -5.17300951287417
lfemur -2.601766424346586 -6.546149618087023 -21.632114273767623
ltibia 19.281271677671278
lfoot -10.211322755982573 -0.370024708799221
ltoes -6.4739528004837705
266
root 0 0 0 -4.254840505696151 -1.1262017147062195 0.9932313548473903
lowerback 12.030604212574978 -0.08150960836066568 -1.5114675234473371
upperback 1.5101569228852991 -0.17265713463675514 1.0828002900571934
thorax -5.1501416537419695 -0.013154142906284805 1.948842134690487
lowerneck -17.425807545966116 -3.1287619458371987 -2.210085216082161
upperneck 18.139868959624476 -3.698624653786556 0.03864604454057874
head 8.435980853906678 -1.9010456036747487 -0.040392748075692486
rclavicle 3.4321024133375694E-15 9.764342945443277E-16
rhumerus -48.96589522861176 -18.328024416750306 -73.00458221424651
rradius 24.74080845580497
rwrist -1.916304262919187
rhand -22.071909883775 28.351618334168514
rfingers 7.12502000000006
rthumb 4.326351953629125 -1.93863363862706
lclavicle -2.1884584812869322E-15 -7.672207717710147E-15
lhumerus -38.443560910774124 0.339586203883127 84.50749617468969
lradius 27.736539027807456
lwrist 5.898438869513562
lhand -32.36308955449777 22.59869650219092
lfingers 7.12502000000004
lthumb -5.520856202699303 53.4069092744833
rfemur -26.291502864071433 23.546624723648023 38.38726610182421
rtibia 25.49630782880311
rfoot -9.437764122597287 -12.485628433370714
rtoes -4.9969980449531235
lfemur -1.5020896671426627 -6.418318491616324 -22.04590715421695
ltibia 19.85159907527931
lfoot -10.12280416335595 -0.6685343938215524
ltoes -6.8058621161274555
